<svg width="362" height="708" viewBox="0 0 362 708" fill="none" xmlns="http://www.w3.org/2000/svg">
<g clip-path="url(#clip0_1310_398)">
<path d="M119.756 0.750095L89.2793 10.5059L158.217 225.865L188.694 216.109L119.756 0.750095Z" fill="black"/>
<path d="M254.675 8.28221L223.766 0L165.001 219.314L195.91 227.597L254.675 8.28221Z" fill="black"/>
<g filter="url(#filter0_d_1310_398)">
<path fill-rule="evenodd" clip-rule="evenodd" d="M60 207C39.5655 207 23 223.565 23 244V648C23 668.435 39.5655 685 60 685H302C322.435 685 339 668.435 339 648V244C339 223.565 322.435 207 302 207H60ZM137 227C132.029 227 128 231.029 128 236V241C128 245.971 132.029 250 137 250H225C229.971 250 234 245.971 234 241V236C234 231.029 229.971 227 225 227H137Z" fill="white"/>
</g>
<g clip-path="url(#clip1_1310_398)">
<path d="M194.379 208.773L174.746 203.733L176.899 195.347C177.249 193.982 177.76 192.887 178.43 192.063C179.081 191.233 179.852 190.674 180.744 190.385C181.621 190.072 182.574 190.047 183.603 190.311C184.594 190.566 185.371 190.994 185.933 191.597C186.496 192.2 186.864 192.902 187.037 193.704C187.214 194.487 187.233 195.309 187.091 196.17L186.87 195.634C187.143 194.728 187.592 193.986 188.218 193.41C188.845 192.833 189.573 192.442 190.403 192.236C191.219 192.008 192.057 192.003 192.917 192.224C193.983 192.498 194.853 192.99 195.528 193.701C196.202 194.413 196.639 195.312 196.838 196.4C197.037 197.487 196.959 198.723 196.604 200.106L194.379 208.773ZM192.037 203.687L193.002 199.929C193.242 198.994 193.221 198.222 192.94 197.611C192.644 196.977 192.094 196.557 191.29 196.351C190.486 196.144 189.79 196.255 189.202 196.682C188.619 197.09 188.207 197.762 187.967 198.696L187.017 202.399L192.037 203.687ZM183.904 201.599L184.789 198.15C185.02 197.252 184.989 196.517 184.698 195.944C184.411 195.352 183.894 194.96 183.146 194.768C182.398 194.576 181.756 194.671 181.22 195.051C180.67 195.408 180.277 196.045 180.042 196.961L179.164 200.383L183.904 201.599ZM199.048 190.586L184.912 186.957L185.992 182.75L200.128 186.379L199.048 190.586ZM183.825 184.436C183.633 185.184 183.262 185.737 182.712 186.094C182.162 186.451 181.56 186.545 180.906 186.377C180.232 186.205 179.741 185.829 179.431 185.251C179.121 184.674 179.062 184.011 179.254 183.263C179.451 182.496 179.824 181.934 180.374 181.577C180.929 181.201 181.543 181.1 182.216 181.273C182.87 181.441 183.35 181.823 183.655 182.42C183.966 182.997 184.022 183.67 183.825 184.436ZM201.079 182.672L180.886 177.488L181.966 173.281L202.159 178.465L201.079 182.672ZM203.097 174.811L182.903 169.627L183.983 165.42L204.177 170.604L203.097 174.811ZM205.13 166.894L190.994 163.265L192.074 159.058L206.21 162.687L205.13 166.894ZM189.907 160.744C189.715 161.492 189.344 162.045 188.794 162.402C188.244 162.759 187.642 162.853 186.987 162.685C186.314 162.512 185.823 162.137 185.513 161.559C185.203 160.981 185.144 160.319 185.336 159.571C185.532 158.804 185.906 158.242 186.456 157.885C187.011 157.509 187.625 157.408 188.298 157.581C188.952 157.749 189.432 158.131 189.737 158.727C190.047 159.305 190.104 159.978 189.907 160.744ZM208.86 152.361C208.596 153.389 208.205 154.255 207.685 154.959C207.147 155.658 206.449 156.126 205.591 156.364C204.732 156.602 203.658 156.556 202.368 156.224L196.899 154.821L196.279 157.233L192.774 156.333L193.393 153.921L189.525 152.449L190.49 148.691L194.473 149.713L195.401 146.095L198.907 146.995L197.979 150.613L203.504 152.032C204.065 152.176 204.498 152.157 204.804 151.977C205.095 151.773 205.32 151.362 205.478 150.745L205.975 148.81L209.537 149.724L208.86 152.361Z" fill="white" fill-opacity="0.15"/>
<ellipse cx="186.993" cy="159.894" rx="3.2292" ry="3.2292" transform="rotate(-75.6029 186.993 159.894)" fill="white" fill-opacity="0.06"/>
<ellipse cx="180.944" cy="183.421" rx="3.2292" ry="3.2292" transform="rotate(-75.6029 180.944 183.421)" fill="white" fill-opacity="0.06"/>
</g>
<g clip-path="url(#clip2_1310_398)">
<path d="M212.379 136.773L192.746 131.733L194.899 123.347C195.249 121.982 195.76 120.887 196.43 120.063C197.081 119.233 197.852 118.674 198.744 118.385C199.621 118.072 200.574 118.047 201.603 118.311C202.594 118.566 203.371 118.994 203.933 119.597C204.496 120.2 204.864 120.902 205.037 121.704C205.214 122.487 205.233 123.309 205.091 124.17L204.87 123.634C205.143 122.728 205.592 121.986 206.218 121.41C206.845 120.833 207.573 120.442 208.403 120.236C209.219 120.008 210.057 120.003 210.917 120.224C211.983 120.498 212.853 120.99 213.528 121.701C214.202 122.413 214.639 123.312 214.838 124.4C215.037 125.487 214.959 126.723 214.604 128.106L212.379 136.773ZM210.037 131.687L211.002 127.929C211.242 126.994 211.221 126.222 210.94 125.611C210.644 124.977 210.094 124.557 209.29 124.351C208.486 124.144 207.79 124.255 207.202 124.682C206.619 125.09 206.207 125.762 205.967 126.696L205.017 130.399L210.037 131.687ZM201.904 129.599L202.789 126.15C203.02 125.252 202.989 124.517 202.698 123.944C202.411 123.352 201.894 122.96 201.146 122.768C200.398 122.576 199.756 122.671 199.22 123.051C198.67 123.408 198.277 124.045 198.042 124.961L197.164 128.383L201.904 129.599ZM217.048 118.586L202.912 114.957L203.992 110.75L218.128 114.379L217.048 118.586ZM201.825 112.436C201.633 113.184 201.262 113.737 200.712 114.094C200.162 114.451 199.56 114.545 198.906 114.377C198.232 114.205 197.741 113.829 197.431 113.251C197.121 112.674 197.062 112.011 197.254 111.263C197.451 110.496 197.824 109.934 198.374 109.577C198.929 109.201 199.543 109.1 200.216 109.273C200.87 109.441 201.35 109.823 201.655 110.42C201.966 110.997 202.022 111.67 201.825 112.436ZM219.079 110.672L198.886 105.488L199.966 101.281L220.159 106.465L219.079 110.672ZM221.097 102.811L200.903 97.6271L201.983 93.42L222.177 98.6038L221.097 102.811ZM223.13 94.8939L208.994 91.2653L210.074 87.0582L224.21 90.6869L223.13 94.8939ZM207.907 88.7442C207.715 89.4921 207.344 90.0446 206.794 90.4016C206.244 90.7587 205.642 90.8532 204.987 90.6852C204.314 90.5124 203.823 90.1371 203.513 89.5593C203.203 88.9814 203.144 88.3185 203.336 87.5706C203.532 86.804 203.906 86.2421 204.456 85.8851C205.011 85.5093 205.625 85.4079 206.298 85.5806C206.952 85.7486 207.432 86.1309 207.737 86.7275C208.047 87.3053 208.104 87.9775 207.907 88.7442ZM226.86 80.3605C226.596 81.3889 226.205 82.255 225.685 82.9587C225.147 83.6576 224.449 84.1261 223.591 84.3642C222.732 84.6022 221.658 84.5557 220.368 84.2245L214.899 82.8205L214.279 85.2326L210.774 84.3326L211.393 81.9206L207.525 80.4494L208.49 76.6911L212.473 77.7135L213.401 74.0954L216.907 74.9954L215.979 78.6135L221.504 80.0318C222.065 80.1758 222.498 80.1575 222.804 79.9768C223.095 79.7726 223.32 79.362 223.478 78.745L223.975 76.8097L227.537 77.7241L226.86 80.3605Z" fill="white" fill-opacity="0.15"/>
<ellipse cx="204.993" cy="87.8939" rx="3.2292" ry="3.2292" transform="rotate(-75.6029 204.993 87.8939)" fill="white" fill-opacity="0.06"/>
<ellipse cx="198.944" cy="111.421" rx="3.2292" ry="3.2292" transform="rotate(-75.6029 198.944 111.421)" fill="white" fill-opacity="0.06"/>
</g>
<g clip-path="url(#clip3_1310_398)">
<path d="M234.379 63.7728L214.746 58.733L216.899 50.3469C217.249 48.982 217.76 47.8872 218.43 47.0627C219.081 46.2334 219.852 45.6741 220.744 45.3847C221.621 45.0719 222.574 45.0475 223.603 45.3114C224.594 45.5658 225.371 45.9945 225.933 46.5973C226.496 47.2002 226.864 47.9024 227.037 48.7042C227.214 49.4872 227.233 50.309 227.091 51.1696L226.87 50.6345C227.143 49.7279 227.592 48.9862 228.218 48.4096C228.845 47.833 229.573 47.4419 230.403 47.2365C231.219 47.0075 232.057 47.0034 232.917 47.2242C233.983 47.4978 234.853 47.9902 235.528 48.7015C236.202 49.4127 236.639 50.3121 236.838 51.3996C237.037 52.4871 236.959 53.7226 236.604 55.1063L234.379 63.7728ZM232.037 58.6874L233.002 54.9291C233.242 53.9942 233.221 53.2215 232.94 52.6111C232.644 51.9771 232.094 51.557 231.29 51.3506C230.486 51.1442 229.79 51.2545 229.202 51.6816C228.619 52.0899 228.207 52.7615 227.967 53.6964L227.017 57.3986L232.037 58.6874ZM223.904 56.5995L224.789 53.1497C225.02 52.2522 224.989 51.5169 224.698 50.9439C224.411 50.3521 223.894 49.9602 223.146 49.7682C222.398 49.5763 221.756 49.6705 221.22 50.0511C220.67 50.4081 220.277 51.0448 220.042 51.961L219.164 55.3827L223.904 56.5995ZM239.048 45.5861L224.912 41.9574L225.992 37.7503L240.128 41.379L239.048 45.5861ZM223.825 39.4363C223.633 40.1842 223.262 40.7367 222.712 41.0937C222.162 41.4508 221.56 41.5453 220.906 41.3773C220.232 41.2045 219.741 40.8292 219.431 40.2514C219.121 39.6735 219.062 39.0106 219.254 38.2627C219.451 37.4961 219.824 36.9342 220.374 36.5772C220.929 36.2014 221.543 36.1 222.216 36.2728C222.87 36.4407 223.35 36.823 223.655 37.4196C223.966 37.9974 224.022 38.6696 223.825 39.4363ZM241.079 37.6717L220.886 32.4879L221.966 28.2809L242.159 33.4647L241.079 37.6717ZM243.097 29.8109L222.903 24.6271L223.983 20.42L244.177 25.6038L243.097 29.8109ZM245.13 21.8939L230.994 18.2653L232.074 14.0582L246.21 17.6869L245.13 21.8939ZM229.907 15.7442C229.715 16.4921 229.344 17.0446 228.794 17.4016C228.244 17.7587 227.642 17.8532 226.987 17.6852C226.314 17.5124 225.823 17.1371 225.513 16.5593C225.203 15.9814 225.144 15.3185 225.336 14.5706C225.532 13.804 225.906 13.2421 226.456 12.8851C227.011 12.5093 227.625 12.4079 228.298 12.5806C228.952 12.7486 229.432 13.1309 229.737 13.7275C230.047 14.3053 230.104 14.9775 229.907 15.7442ZM248.86 7.36052C248.596 8.38891 248.205 9.25497 247.685 9.95869C247.147 10.6576 246.449 11.1261 245.591 11.3642C244.732 11.6022 243.658 11.5557 242.368 11.2245L236.899 9.82052L236.279 12.2326L232.774 11.3326L233.393 8.92055L229.525 7.44944L230.49 3.69113L234.473 4.71349L235.401 1.09542L238.907 1.99539L237.979 5.61346L243.504 7.03181C244.065 7.17581 244.498 7.15746 244.804 6.97679C245.095 6.77261 245.32 6.36201 245.478 5.74497L245.975 3.80972L249.537 4.72409L248.86 7.36052Z" fill="white" fill-opacity="0.15"/>
<ellipse cx="226.993" cy="14.8939" rx="3.2292" ry="3.2292" transform="rotate(-75.6029 226.993 14.8939)" fill="white" fill-opacity="0.06"/>
<ellipse cx="220.944" cy="38.4212" rx="3.2292" ry="3.2292" transform="rotate(-75.6029 220.944 38.4212)" fill="white" fill-opacity="0.06"/>
</g>
<g clip-path="url(#clip4_1310_398)">
<path d="M156.473 205.337L175.078 199.327L172.511 191.38C172.093 190.087 171.538 189.063 170.844 188.308C170.168 187.548 169.392 187.055 168.517 186.829C167.654 186.58 166.735 186.612 165.76 186.927C164.821 187.231 164.098 187.689 163.592 188.303C163.086 188.916 162.773 189.614 162.654 190.396C162.529 191.161 162.56 191.953 162.746 192.773L162.928 192.245C162.612 191.388 162.136 190.7 161.499 190.182C160.862 189.664 160.137 189.33 159.326 189.181C158.527 189.009 157.72 189.055 156.905 189.318C155.895 189.644 155.086 190.169 154.479 190.894C153.871 191.619 153.504 192.51 153.376 193.569C153.248 194.628 153.396 195.813 153.82 197.124L156.473 205.337ZM158.428 200.303L157.277 196.741C156.991 195.855 156.965 195.11 157.201 194.506C157.448 193.878 157.953 193.441 158.715 193.195C159.477 192.949 160.153 193.014 160.744 193.39C161.33 193.749 161.766 194.372 162.052 195.258L163.185 198.766L158.428 200.303ZM166.136 197.813L165.08 194.544C164.805 193.693 164.791 192.984 165.038 192.415C165.279 191.828 165.754 191.42 166.462 191.191C167.171 190.962 167.795 191.015 168.333 191.35C168.884 191.661 169.3 192.251 169.58 193.12L170.628 196.362L166.136 197.813ZM150.906 188.102L164.302 183.775L163.014 179.788L149.618 184.115L150.906 188.102ZM165.199 181.284C165.428 181.992 165.818 182.503 166.369 182.814C166.919 183.125 167.505 183.181 168.125 182.98C168.763 182.774 169.214 182.384 169.479 181.809C169.743 181.235 169.761 180.593 169.532 179.884C169.297 179.158 168.905 178.639 168.354 178.327C167.798 177.998 167.2 177.937 166.563 178.143C165.942 178.343 165.503 178.74 165.244 179.332C164.98 179.907 164.965 180.557 165.199 181.284ZM148.483 180.602L167.62 174.42L166.332 170.434L147.195 176.615L148.483 180.602ZM146.077 173.152L165.214 166.971L163.926 162.984L144.789 169.165L146.077 173.152ZM143.653 165.65L157.05 161.323L155.762 157.336L142.366 161.663L143.653 165.65ZM157.947 158.831C158.176 159.54 158.566 160.05 159.117 160.361C159.667 160.673 160.253 160.728 160.873 160.528C161.511 160.322 161.962 159.932 162.226 159.357C162.491 158.782 162.509 158.141 162.28 157.432C162.045 156.705 161.652 156.186 161.102 155.875C160.545 155.546 159.948 155.484 159.31 155.691C158.69 155.891 158.251 156.287 157.992 156.88C157.727 157.454 157.713 158.105 157.947 158.831ZM139.205 151.877C139.52 152.851 139.948 153.662 140.489 154.309C141.049 154.95 141.749 155.36 142.589 155.539C143.429 155.717 144.461 155.609 145.684 155.214L150.867 153.54L151.605 155.826L154.927 154.753L154.189 152.467L157.826 150.823L156.676 147.261L152.901 148.48L151.794 145.051L148.471 146.124L149.579 149.553L144.343 151.244C143.811 151.416 143.393 151.424 143.088 151.268C142.795 151.089 142.555 150.707 142.366 150.122L141.773 148.288L138.398 149.378L139.205 151.877Z" fill="white" fill-opacity="0.15"/>
<ellipse cx="3.11491" cy="3.11491" rx="3.11491" ry="3.11491" transform="matrix(-0.307366 -0.951591 -0.951591 0.307366 164.649 159.84)" fill="white" fill-opacity="0.06"/>
<ellipse cx="3.11491" cy="3.11491" rx="3.11491" ry="3.11491" transform="matrix(-0.307366 -0.951591 -0.951591 0.307366 171.86 182.135)" fill="white" fill-opacity="0.06"/>
</g>
<g clip-path="url(#clip5_1310_398)">
<path d="M134.898 137.079L153.504 131.07L150.937 123.122C150.519 121.829 149.963 120.805 149.27 120.051C148.594 119.291 147.818 118.797 146.943 118.571C146.079 118.322 145.16 118.355 144.186 118.669C143.247 118.973 142.524 119.431 142.018 120.045C141.512 120.658 141.199 121.356 141.08 122.138C140.955 122.903 140.986 123.695 141.172 124.515L141.354 123.987C141.038 123.13 140.562 122.443 139.924 121.924C139.287 121.406 138.563 121.073 137.752 120.924C136.953 120.751 136.146 120.797 135.33 121.06C134.32 121.386 133.512 121.912 132.904 122.636C132.297 123.361 131.929 124.252 131.802 125.311C131.674 126.37 131.822 127.555 132.246 128.866L134.898 137.079ZM136.853 132.045L135.703 128.483C135.417 127.597 135.391 126.852 135.627 126.248C135.874 125.62 136.378 125.183 137.14 124.937C137.902 124.691 138.579 124.756 139.17 125.133C139.756 125.491 140.192 126.114 140.478 127L141.611 130.508L136.853 132.045ZM144.561 129.555L143.505 126.286C143.231 125.435 143.217 124.726 143.463 124.157C143.704 123.57 144.179 123.162 144.888 122.933C145.597 122.705 146.221 122.757 146.759 123.092C147.31 123.404 147.725 123.993 148.006 124.862L149.053 128.104L144.561 129.555ZM129.331 119.844L142.727 115.517L141.44 111.53L128.044 115.857L129.331 119.844ZM143.625 113.026C143.854 113.735 144.244 114.245 144.795 114.556C145.345 114.867 145.931 114.923 146.551 114.723C147.189 114.517 147.64 114.126 147.904 113.552C148.169 112.977 148.187 112.335 147.958 111.626C147.723 110.9 147.33 110.381 146.78 110.07C146.223 109.741 145.626 109.679 144.988 109.885C144.368 110.085 143.929 110.482 143.67 111.074C143.405 111.649 143.391 112.299 143.625 113.026ZM126.909 112.344L146.046 106.163L144.758 102.176L125.621 108.357L126.909 112.344ZM124.503 104.894L143.64 98.7131L142.352 94.7262L123.215 100.908L124.503 104.894ZM122.079 97.3918L135.475 93.0648L134.188 89.0779L120.791 93.4049L122.079 97.3918ZM136.373 90.5734C136.602 91.2822 136.992 91.7923 137.542 92.1036C138.093 92.415 138.678 92.4705 139.299 92.2702C139.937 92.0641 140.388 91.6738 140.652 91.0992C140.917 90.5245 140.934 89.8828 140.705 89.174C140.471 88.4475 140.078 87.9286 139.528 87.6173C138.971 87.2882 138.374 87.2267 137.736 87.4327C137.116 87.633 136.676 88.0294 136.418 88.6217C136.153 89.1964 136.138 89.8469 136.373 90.5734ZM117.631 83.6188C117.945 84.5934 118.374 85.4042 118.915 86.0511C119.475 86.6923 120.174 87.1022 121.015 87.2808C121.855 87.4594 122.887 87.3513 124.109 86.9564L129.292 85.2822L130.031 87.5681L133.353 86.4949L132.615 84.2091L136.252 82.5647L135.101 79.0031L131.327 80.2222L130.22 76.7934L126.897 77.8666L128.005 81.2953L122.769 82.9866C122.237 83.1583 121.819 83.1662 121.514 83.0102C121.221 82.8309 120.98 82.4488 120.792 81.864L120.199 80.0301L116.824 81.1204L117.631 83.6188Z" fill="white" fill-opacity="0.15"/>
<ellipse cx="3.11491" cy="3.11491" rx="3.11491" ry="3.11491" transform="matrix(-0.307366 -0.951591 -0.951591 0.307366 143.075 91.582)" fill="white" fill-opacity="0.06"/>
<ellipse cx="3.11491" cy="3.11491" rx="3.11491" ry="3.11491" transform="matrix(-0.307366 -0.951591 -0.951591 0.307366 150.286 113.877)" fill="white" fill-opacity="0.06"/>
</g>
<g clip-path="url(#clip6_1310_398)">
<path d="M109.414 68.091L128.02 62.0814L125.453 54.1341C125.035 52.8406 124.479 51.8166 123.785 51.0623C123.109 50.3022 122.334 49.8092 121.458 49.5831C120.595 49.3336 119.676 49.3663 118.702 49.6811C117.762 49.9844 117.04 50.4429 116.533 51.0565C116.027 51.6701 115.714 52.3679 115.595 53.15C115.47 53.9144 115.501 54.7067 115.688 55.527L115.869 54.9987C115.554 54.1419 115.077 53.4544 114.44 52.9361C113.803 52.4178 113.079 52.0843 112.268 51.9354C111.468 51.763 110.661 51.8085 109.846 52.0718C108.836 52.398 108.027 52.9234 107.42 53.6479C106.813 54.3725 106.445 55.2641 106.317 56.3229C106.19 57.3817 106.338 58.5667 106.761 59.878L109.414 68.091ZM111.369 63.0567L110.219 59.4951C109.932 58.6091 109.907 57.8639 110.142 57.2596C110.389 56.6318 110.894 56.1948 111.656 55.9487C112.418 55.7026 113.095 55.7678 113.686 56.1443C114.271 56.5031 114.707 57.1255 114.993 58.0115L116.127 61.52L111.369 63.0567ZM119.077 60.567L118.021 57.2977C117.746 56.4472 117.732 55.7375 117.979 55.1686C118.22 54.5819 118.695 54.1741 119.404 53.9452C120.113 53.7163 120.736 53.7692 121.275 54.104C121.826 54.4153 122.241 55.0051 122.522 55.8734L123.569 59.1161L119.077 60.567ZM103.847 50.8559L117.243 46.529L115.955 42.542L102.559 46.869L103.847 50.8559ZM118.141 44.0376C118.37 44.7463 118.76 45.2564 119.31 45.5678C119.861 45.8791 120.446 45.9346 121.066 45.7343C121.704 45.5283 122.156 45.1379 122.42 44.5633C122.684 43.9887 122.702 43.3469 122.473 42.6382C122.239 41.9117 121.846 41.3927 121.295 41.0814C120.739 40.7523 120.142 40.6908 119.504 40.8968C118.884 41.0972 118.444 41.4935 118.186 42.0858C117.921 42.6605 117.906 43.311 118.141 44.0376ZM101.424 43.3557L120.562 37.1744L119.274 33.1874L100.137 39.3688L101.424 43.3557ZM99.0182 35.9062L118.155 29.7248L116.868 25.7379L97.7305 31.9193L99.0182 35.9062ZM96.5949 28.4035L109.991 24.0766L108.703 20.0896L95.3071 24.4166L96.5949 28.4035ZM110.889 21.5852C111.118 22.2939 111.507 22.804 112.058 23.1154C112.609 23.4267 113.194 23.4822 113.814 23.2819C114.452 23.0759 114.903 22.6855 115.168 22.1109C115.432 21.5363 115.45 20.8946 115.221 20.1858C114.986 19.4593 114.594 18.9403 114.043 18.629C113.487 18.2999 112.89 18.2384 112.252 18.4444C111.632 18.6448 111.192 19.0411 110.933 19.6335C110.669 20.2081 110.654 20.8587 110.889 21.5852ZM92.1462 14.6306C92.461 15.6051 92.8892 16.4159 93.4308 17.0628C93.9901 17.704 94.69 18.1139 95.5304 18.2925C96.3709 18.4712 97.4024 18.363 98.6251 17.9681L103.808 16.294L104.546 18.5798L107.869 17.5067L107.131 15.2208L110.767 13.5764L109.617 10.0148L105.843 11.2339L104.735 7.80514L101.413 8.87829L102.52 12.307L97.2841 13.9983C96.7525 14.17 96.3344 14.1779 96.0296 14.022C95.7368 13.8426 95.496 13.4605 95.3071 12.8758L94.7148 11.0418L91.3392 12.1321L92.1462 14.6306Z" fill="white" fill-opacity="0.15"/>
<ellipse cx="3.11491" cy="3.11491" rx="3.11491" ry="3.11491" transform="matrix(-0.307366 -0.951591 -0.951591 0.307366 117.591 22.5938)" fill="white" fill-opacity="0.06"/>
<ellipse cx="3.11491" cy="3.11491" rx="3.11491" ry="3.11491" transform="matrix(-0.307366 -0.951591 -0.951591 0.307366 124.802 44.8887)" fill="white" fill-opacity="0.06"/>
</g>
</g>
<defs>
<filter id="filter0_d_1310_398" x="0.6" y="184.6" width="360.8" height="522.8" filterUnits="userSpaceOnUse" color-interpolation-filters="sRGB">
<feFlood flood-opacity="0" result="BackgroundImageFix"/>
<feColorMatrix in="SourceAlpha" type="matrix" values="0 0 0 0 0 0 0 0 0 0 0 0 0 0 0 0 0 0 127 0" result="hardAlpha"/>
<feOffset/>
<feGaussianBlur stdDeviation="11.2"/>
<feComposite in2="hardAlpha" operator="out"/>
<feColorMatrix type="matrix" values="0 0 0 0 0.705762 0 0 0 0 0.705762 0 0 0 0 0.705762 0 0 0 0.19 0"/>
<feBlend mode="normal" in2="BackgroundImageFix" result="effect1_dropShadow_1310_398"/>
<feBlend mode="normal" in="SourceGraphic" in2="effect1_dropShadow_1310_398" result="shape"/>
</filter>
<clipPath id="clip0_1310_398">
<rect width="362" height="708" fill="white"/>
</clipPath>
<clipPath id="clip1_1310_398">
<rect width="80.1684" height="35.5212" fill="white" transform="translate(165 211.65) rotate(-75.6029)"/>
</clipPath>
<clipPath id="clip2_1310_398">
<rect width="80.1684" height="35.5212" fill="white" transform="translate(183 139.65) rotate(-75.6029)"/>
</clipPath>
<clipPath id="clip3_1310_398">
<rect width="80.1684" height="35.5212" fill="white" transform="translate(205 66.6504) rotate(-75.6029)"/>
</clipPath>
<clipPath id="clip4_1310_398">
<rect width="77.3311" height="34.264" fill="white" transform="matrix(-0.307366 -0.951591 -0.951591 0.307366 184.954 206.369)"/>
</clipPath>
<clipPath id="clip5_1310_398">
<rect width="77.3311" height="34.264" fill="white" transform="matrix(-0.307366 -0.951591 -0.951591 0.307366 163.38 138.109)"/>
</clipPath>
<clipPath id="clip6_1310_398">
<rect width="77.3311" height="34.264" fill="white" transform="matrix(-0.307366 -0.951591 -0.951591 0.307366 137.896 69.1211)"/>
</clipPath>
</defs>
</svg>
